<svg width="116" height="100" viewBox="0 0 116 100" fill="none" xmlns="http://www.w3.org/2000/svg">
<g filter="url(#filter0_f)">
<circle cx="66" cy="50" r="25" fill="#EF6A20" fill-opacity="0.33"/>
</g>
<circle cx="66" cy="50" r="24" fill="#EF6A20" stroke="#ECD2C0" stroke-width="2"/>
<g clip-path="url(#clip0)">
<path d="M79.8992 56.9757L78.273 52.2429C79.0569 50.6404 79.4711 48.8583 79.4739 47.0651C79.4787 43.9472 78.2724 40.9992 76.0772 38.7641C73.8814 36.5286 70.9556 35.2702 67.8384 35.2208C64.606 35.1697 61.5678 36.3992 59.2837 38.6833C57.0812 40.8857 55.8596 43.7892 55.8209 46.892C53.6502 48.5264 52.3689 51.0745 52.3731 53.7963C52.3751 55.07 52.6618 56.336 53.205 57.4809L52.0848 60.7407C51.8923 61.3011 52.0329 61.9096 52.4519 62.3286C52.7468 62.6235 53.1356 62.7805 53.5354 62.7805C53.7036 62.7805 53.8738 62.7528 54.0398 62.6957L57.2997 61.5756C58.4446 62.1188 59.7106 62.4054 60.9843 62.4075C60.9889 62.4075 60.9933 62.4075 60.9979 62.4075C63.7601 62.4073 66.3277 61.093 67.9562 58.8691C69.6508 58.8244 71.3274 58.4142 72.8432 57.6727L77.5761 59.299C77.7733 59.3668 77.9755 59.3998 78.1754 59.3998C78.6505 59.3998 79.1125 59.2132 79.463 58.8627C79.9609 58.3647 80.128 57.6417 79.8992 56.9757ZM60.9978 60.7408C60.9942 60.7408 60.9904 60.7408 60.9869 60.7408C59.8595 60.7391 58.74 60.4612 57.7496 59.9372C57.5459 59.8295 57.3068 59.8108 57.0891 59.8856L53.7464 61.0343L54.895 57.6916C54.9698 57.4738 54.9512 57.2347 54.8435 57.0311C54.3195 56.0406 54.0415 54.9212 54.0398 53.7938C54.037 51.9804 54.7424 50.2616 55.976 48.9746C56.379 51.4309 57.5497 53.6945 59.3643 55.4768C61.1655 57.246 63.4297 58.3725 65.8727 58.7408C64.5828 60.0122 62.8439 60.7408 60.9978 60.7408ZM78.2844 57.6841C78.237 57.7316 78.1808 57.7445 78.1175 57.7227L73.0509 55.9817C72.9629 55.9514 72.8713 55.9364 72.7801 55.9364C72.6456 55.9364 72.5116 55.969 72.3904 56.0332C70.9437 56.7985 69.309 57.2044 67.6628 57.2069C67.6574 57.2069 67.6525 57.2069 67.6471 57.2069C62.1311 57.2069 57.5749 52.7261 57.4875 47.2115C57.4435 44.4342 58.5 41.824 60.4622 39.8617C62.4244 37.8995 65.0351 36.8434 67.812 36.8872C73.3319 36.9747 77.8158 41.5393 77.8073 47.0625C77.8047 48.7087 77.3988 50.3435 76.6336 51.79C76.5259 51.9936 76.5073 52.2327 76.5821 52.4505L78.3231 57.5172C78.3448 57.5807 78.3318 57.6368 78.2844 57.6841Z" fill="white"/>
<path d="M72.6114 42.6296H62.6823C62.222 42.6296 61.8489 43.0028 61.8489 43.463C61.8489 43.9232 62.2221 44.2963 62.6823 44.2963H72.6114C73.0716 44.2963 73.4447 43.9232 73.4447 43.463C73.4447 43.0028 73.0716 42.6296 72.6114 42.6296Z" fill="white"/>
<path d="M72.6114 46.0569H62.6823C62.222 46.0569 61.8489 46.43 61.8489 46.8902C61.8489 47.3504 62.2221 47.7235 62.6823 47.7235H72.6114C73.0716 47.7235 73.4447 47.3504 73.4447 46.8902C73.4447 46.43 73.0716 46.0569 72.6114 46.0569Z" fill="white"/>
<path d="M68.7893 49.4841H62.6821C62.2219 49.4841 61.8488 49.8573 61.8488 50.3175C61.8488 50.7777 62.2219 51.1508 62.6821 51.1508H68.7892C69.2495 51.1508 69.6226 50.7777 69.6226 50.3175C69.6226 49.8573 69.2495 49.4841 68.7893 49.4841Z" fill="white"/>
</g>
<path d="M8.766 43.4H9.72V56H8.766V50.546C7.626 51.098 6.444 51.374 5.22 51.374C3.996 51.374 3.03 51.044 2.322 50.384C1.614 49.724 1.26 48.878 1.26 47.846V43.4H2.214V47.846C2.214 48.638 2.478 49.274 3.006 49.754C3.534 50.234 4.272 50.474 5.22 50.474C6.444 50.474 7.626 50.198 8.766 49.646V43.4ZM20.5912 47H21.5092V56H20.5912V53.966C20.2072 54.662 19.6792 55.208 19.0072 55.604C18.3352 56 17.5732 56.198 16.7212 56.198C15.4372 56.198 14.3392 55.748 13.4272 54.848C12.5152 53.936 12.0592 52.82 12.0592 51.5C12.0592 50.18 12.5152 49.07 13.4272 48.17C14.3392 47.258 15.4372 46.802 16.7212 46.802C17.5732 46.802 18.3352 47 19.0072 47.396C19.6792 47.792 20.2072 48.338 20.5912 49.034V47ZM14.0752 54.218C14.8192 54.962 15.7252 55.334 16.7932 55.334C17.8612 55.334 18.7612 54.962 19.4932 54.218C20.2252 53.474 20.5912 52.568 20.5912 51.5C20.5912 50.432 20.2252 49.526 19.4932 48.782C18.7612 48.038 17.8612 47.666 16.7932 47.666C15.7252 47.666 14.8192 48.038 14.0752 48.782C13.3432 49.526 12.9772 50.432 12.9772 51.5C12.9772 52.568 13.3432 53.474 14.0752 54.218ZM30.5727 47V47.882H27.2967V56H26.3967V47.882H23.1207V47H30.5727Z" fill="#2B2B2B"/>
<defs>
<filter id="filter0_f" x="16" y="0" width="100" height="100" filterUnits="userSpaceOnUse" color-interpolation-filters="sRGB">
<feFlood flood-opacity="0" result="BackgroundImageFix"/>
<feBlend mode="normal" in="SourceGraphic" in2="BackgroundImageFix" result="shape"/>
<feGaussianBlur stdDeviation="12.5" result="effect1_foregroundBlur"/>
</filter>
<clipPath id="clip0">
<rect width="28" height="28" fill="white" transform="translate(52 35)"/>
</clipPath>
</defs>
</svg>
