<svg width="201" height="23" viewBox="0 0 201 23" fill="none" xmlns="http://www.w3.org/2000/svg">
<path d="M0.93 14.57V9.23H8.61C9.54 9.23 10.11 8.57 10.11 7.67C10.11 6.77 9.54 6.14 8.61 6.14H0.93V0.8H9.72C14.25 0.8 15.99 4.85 15.99 7.67C15.99 8.96 15.66 10.58 14.25 11.69C15.66 12.74 15.99 14.03 15.99 16.04V23H10.08V17.66C10.08 15.11 9.45 14.57 6.99 14.57H0.93ZM37.2016 0.8V6.14H21.9616V0.8H37.2016ZM21.9616 23V9.23H37.2016V14.57H27.8716V17.66H37.2016V23H21.9616ZM63.5873 9.23H71.3273C72.1673 9.23 72.7973 8.54 72.7973 7.67C72.7973 6.8 72.1673 6.14 71.3273 6.14H63.5873V0.8H72.4973C75.9473 0.8 78.7973 3.53 78.7673 7.61C78.7673 11.69 75.9173 14.57 72.5273 14.57H69.4973V23H63.5873V9.23ZM101.224 23H92.2842C86.3442 23 84.6642 20.09 84.6642 14.57V0.8H90.5742V14.57C90.5742 17.06 91.2042 17.66 93.6642 17.66H95.3142V0.8H101.224V23ZM106.993 9.23H114.673C115.603 9.23 116.143 8.57 116.143 7.67C116.143 6.77 115.603 6.14 114.673 6.14H106.993V0.8H115.843C119.353 0.8 122.113 3.53 122.113 7.67C122.113 9.71 121.303 10.82 120.253 11.69C121.303 12.35 122.113 14.12 122.113 16.1C122.113 20.27 119.293 23 115.843 23H106.993V17.66H114.673C115.603 17.66 116.143 17 116.143 16.1C116.143 15.2 115.603 14.57 114.673 14.57H106.993V9.23ZM140.53 23H127.81V0.8H133.72V17.66H140.53V23ZM154.889 23H148.979V6.14H145.829L148.979 0.8H154.889V23ZM160.516 9.23L167.896 0.8H174.916L165.226 11.93L174.916 23H167.836L160.516 14.57V9.23ZM200.284 23H178.234L182.974 9.23H189.064L186.124 17.66H192.244L186.334 0.8H192.484L200.284 23Z" fill="#181414"/>
<path d="M44.6787 0.8H50.5887V4.31C50.5887 6.14 52.8687 8.15 54.3387 9.77C55.5987 11.15 57.5487 12.65 57.5487 15.92C57.5487 20.96 54.6387 23 51.5187 23H42.6987V17.66H50.3787C51.0687 17.66 51.6687 17.09 51.6687 15.92C51.6687 14.69 49.8387 13.43 48.4887 11.93C47.1087 10.46 44.6787 7.37 44.6787 4.37V0.8Z" fill="#EF6A20"/>
</svg>
