<svg width="250" height="230" viewBox="0 0 222 193" fill="none" xmlns="http://www.w3.org/2000/svg">
<path d="M125.8 148.015H114.7V136.915C114.7 135.933 114.31 134.992 113.616 134.298C112.922 133.605 111.981 133.215 111 133.215C110.019 133.215 109.078 133.605 108.384 134.298C107.69 134.992 107.3 135.933 107.3 136.915V148.015H96.2C95.2187 148.015 94.2776 148.405 93.5837 149.098C92.8898 149.792 92.5 150.733 92.5 151.715C92.5 152.696 92.8898 153.637 93.5837 154.331C94.2776 155.025 95.2187 155.415 96.2 155.415H107.3V166.515C107.3 167.496 107.69 168.437 108.384 169.131C109.078 169.825 110.019 170.215 111 170.215C111.981 170.215 112.922 169.825 113.616 169.131C114.31 168.437 114.7 167.496 114.7 166.515V155.415H125.8C126.781 155.415 127.722 155.025 128.416 154.331C129.11 153.637 129.5 152.696 129.5 151.715C129.5 150.733 129.11 149.792 128.416 149.098C127.722 148.405 126.781 148.015 125.8 148.015Z" fill="#EF6A20"/>
<path d="M172.568 61.8367C177.359 58.9531 181.346 54.9092 184.163 50.0782C186.979 45.2472 188.533 39.7847 188.681 34.1948C188.83 28.6048 187.568 23.0675 185.013 18.0937C182.457 13.1199 178.69 8.8699 174.059 5.73584C169.428 2.60177 164.082 0.684613 158.514 0.161254C152.947 -0.362104 147.338 0.525202 142.203 2.7413C137.069 4.95739 132.576 8.43089 129.138 12.8413C125.701 17.2517 123.429 22.4569 122.533 27.9766C115.09 25.2275 106.91 25.2275 99.4666 27.9766C98.5724 22.4548 96.3016 17.2473 92.8639 12.8346C89.4261 8.42197 84.9321 4.94643 79.7968 2.72879C74.6615 0.511138 69.0502 -0.377149 63.481 0.145917C57.9118 0.668984 52.5641 2.58655 47.9315 5.72161C43.2989 8.85667 39.5307 13.1082 36.9747 18.0838C34.4187 23.0594 33.1572 28.5987 33.3068 34.1904C33.4564 39.7821 35.0121 45.246 37.8305 50.0779C40.6488 54.9097 44.6389 58.9537 49.4325 61.8367C21.0026 70.6935 0 100.994 0 136.915C1.95648e-05 137.6 0.190284 138.272 0.549591 138.855C0.908898 139.438 1.42314 139.911 2.035 140.219C2.82356 140.616 20.7815 149.572 44.8759 153.555C44.5599 156.632 44.4011 159.722 44.4 162.815C44.4 163.5 44.5903 164.172 44.9496 164.755C45.3089 165.338 45.8231 165.811 46.435 166.119C47.0108 166.409 60.397 173.095 79.55 177.522C83.3629 182.178 88.1619 185.929 93.6006 188.505C99.0394 191.08 104.982 192.416 111 192.416C117.018 192.416 122.961 191.08 128.399 188.505C133.838 185.929 138.637 182.178 142.45 177.522C161.608 173.093 174.995 166.408 175.565 166.12C176.177 165.812 176.691 165.339 177.051 164.756C177.41 164.172 177.6 163.5 177.6 162.815C177.599 159.722 177.441 156.631 177.125 153.555C201.227 149.568 219.187 140.612 219.966 140.219C220.578 139.91 221.092 139.438 221.451 138.855C221.81 138.271 222 137.6 222 136.915C222 100.994 200.997 70.6935 172.568 61.8367ZM155.4 7.41475C159.288 7.41682 163.126 8.29434 166.629 9.98223C170.132 11.6701 173.21 14.125 175.634 17.1649C178.059 20.2047 179.768 23.7515 180.635 27.542C181.501 31.3325 181.503 35.2695 180.641 39.0609C179.778 42.8524 178.073 46.4009 175.652 49.4433C173.23 52.4857 170.155 54.9438 166.654 56.6354C163.153 58.327 159.316 59.2085 155.427 59.2147C151.539 59.2209 147.699 58.3515 144.193 56.671C143.806 51.6566 142.289 46.7949 139.756 42.4503C137.222 38.1058 133.738 34.3913 129.564 31.5855C130.01 25.034 132.924 18.8954 137.719 14.4092C142.515 9.92301 148.833 7.4233 155.4 7.41475ZM111 33.3148C116.123 33.3148 121.13 34.8338 125.389 37.6797C129.649 40.5256 132.968 44.5706 134.928 49.3033C136.889 54.0359 137.402 59.2435 136.402 64.2676C135.403 69.2917 132.936 73.9066 129.314 77.5288C125.692 81.151 121.077 83.6177 116.053 84.6171C111.029 85.6164 105.821 85.1035 101.089 83.1432C96.3559 81.1829 92.3109 77.8633 89.4649 73.604C86.619 69.3448 85.1 64.3373 85.1 59.2147C85.1077 52.348 87.8389 45.7647 92.6945 40.9092C97.55 36.0537 104.133 33.3225 111 33.3148ZM40.7 33.3148C40.6994 26.5961 43.31 20.1403 47.9805 15.3105C52.6509 10.4807 59.0156 7.65507 65.7305 7.43032C72.4453 7.20558 78.9847 9.59929 83.9677 14.106C88.9506 18.6127 91.987 24.8795 92.4357 31.5831C88.2616 34.3892 84.7772 38.1041 82.2437 42.4491C79.7102 46.794 78.1935 51.6562 77.8073 56.671C73.8584 58.5642 69.4941 59.4254 65.1221 59.1744C60.75 58.9233 56.513 57.5681 52.8068 55.2353C49.1006 52.9025 46.0462 49.6684 43.929 45.8349C41.8118 42.0015 40.7009 37.694 40.7 33.3148ZM45.9327 146.228C32.6674 143.95 19.7355 140.038 7.43237 134.58C8.47207 96.8923 34.6144 66.6147 66.6 66.6147C70.758 66.6164 74.8997 67.135 78.9298 68.1586C81.228 76.3417 86.5568 83.3423 93.8325 87.7367C69.9073 95.1898 51.245 117.831 45.9327 146.228ZM111 185.015C104.414 185.015 97.9757 183.062 92.4995 179.403C87.0234 175.744 82.7552 170.543 80.2348 164.458C77.7144 158.373 77.055 151.678 78.3399 145.218C79.6247 138.759 82.7963 132.825 87.4533 128.168C92.1104 123.511 98.0439 120.339 104.503 119.055C110.963 117.77 117.659 118.429 123.743 120.95C129.828 123.47 135.029 127.738 138.688 133.214C142.347 138.69 144.3 145.129 144.3 151.715C144.29 160.543 140.779 169.008 134.536 175.25C128.293 181.493 119.829 185.005 111 185.015ZM148.106 168.433C150.899 162.235 152.095 155.435 151.585 148.655C151.074 141.876 148.874 135.332 145.184 129.622C141.494 123.911 136.432 119.216 130.461 115.965C124.489 112.714 117.799 111.011 111 111.011C104.201 111.011 97.5103 112.714 91.539 115.965C85.5677 119.216 80.5059 123.911 76.8159 129.622C73.1258 135.332 70.9251 141.876 70.4146 148.655C69.9042 155.435 71.1003 162.235 73.8936 168.433C66.356 166.324 58.9826 163.666 51.8324 160.482C52.8721 122.793 79.0144 92.5147 111 92.5147C142.986 92.5147 169.128 122.795 170.168 160.483C163.019 163.67 155.645 166.327 148.106 168.433ZM176.067 146.226C170.753 117.829 152.092 95.1898 128.168 87.7367C135.443 83.3423 140.772 76.3417 143.07 68.1586C147.1 67.1349 151.242 66.6164 155.4 66.6147C187.386 66.6147 213.528 96.8923 214.568 134.58C202.264 140.038 189.332 143.95 176.067 146.226Z" fill="#EF6A20"/>
</svg>
